<svg version="1.2" xmlns="http://www.w3.org/2000/svg" viewBox="0 0 317 185">
	<title>logo-svg</title>
	<style>
		.s0 { fill: #efefef } 
	</style>
	<g id="SvgjsG1097">
		<path id="Layer" fill-rule="evenodd" class="s0" d="m243.8 81.8q0.4 4.1 0.4 8.3-0.1 4.2-0.5 8.4-0.5 4.2-1.4 8.3-0.6 3.1-1.5 6.2-0.9 3.1-2.1 6.1-1.1 3-2.5 5.9-1.4 3-3 5.8-1 1.8-2.1 3.5-1.2 1.8-2.4 3.5-1.2 1.7-2.5 3.3-1.3 1.6-2.6 3.2l-3 3.3-1 1.1-1.1 1-2 1.8 1-1.1-2.3 2.1h0.2l-0.2 0.1-1.8 1.5-1.9 1.8-4.4 3.4q-1.1 0.9-2.3 1.7-1.2 0.8-2.3 1.6-1.2 0.8-2.4 1.5-1.3 0.7-2.5 1.4l-4.9 2.5-5.4 2.2c-7.5 3-15.5 4.9-23.6 5.6-8.1 0.6-16.3 0.1-24.3-1.5-8-1.7-15.6-4.5-22.8-8.3-7.2-3.9-13.8-8.8-19.5-14.5q-1.1-1.1-2.2-2.2-1-1.2-2.1-2.3-1-1.2-2-2.4-0.9-1.2-1.9-2.4-0.9-1.3-1.8-2.5-0.9-1.3-1.7-2.6-0.9-1.3-1.6-2.7-0.8-1.3-1.6-2.7c-5.5-10.2-8.9-21.4-9.9-33-1-11.6 0.4-23.3 4.2-34.3 3.7-11 9.7-21.1 17.5-29.7 7.9-8.6 17.4-15.4 28-20.2q1.6-0.6 3.2-1.3 1.6-0.6 3.2-1.1 1.6-0.6 3.2-1.1 1.7-0.5 3.3-0.9 1.2-0.3 2.3-0.7 1.2-0.3 2.4-0.6 1.1-0.3 2.3-0.6 1.2-0.3 2.3-0.5c9.3-1.9 18.7-2.2 28-0.9 9.3 1.3 18.4 4.1 26.7 8.4 8.4 4.3 16 9.9 22.4 16.7 6.5 6.9 11.8 14.7 15.7 23.3q0.9 2.2 1.8 4.4 0.8 2.3 1.5 4.6 0.7 2.3 1.3 4.6 0.6 2.3 1.1 4.7 0.8 4.1 1.1 8.3zm-25.9 65.1l3.4-3.9q1.6-2 3.1-4 1.4-2.1 2.8-4.2 1.3-2.2 2.6-4.4 1.2-2.2 2.3-4.5 0.9-2.2 1.8-4.4 0.9-2.2 1.6-4.5 0.7-2.2 1.3-4.5 0.7-2.3 1.1-4.6 0.9-4.1 1.3-8.2 0.4-4.1 0.5-8.3 0-4.1-0.4-8.3-0.4-4.1-1.2-8.2-1-5.1-2.8-10.1-1.7-5-4-9.8-2.3-4.7-5.3-9.1-2.9-4.4-6.4-8.3l-2.9-3.3-0.9-1.1 0.1 0.1 1 1.2 2.9 3.2q1.4 1.6 2.7 3.2 1.3 1.6 2.5 3.3 1.2 1.7 2.3 3.5 1.1 1.8 2.1 3.6 0.8 1.2 1.5 2.5 0.6 1.4 1.3 2.7 0.6 1.3 1.2 2.7 0.6 1.3 1.1 2.7 0.7 1.6 1.2 3.3 0.6 1.6 1.1 3.3 0.5 1.7 1 3.3 0.4 1.7 0.8 3.5 1.4 6.4 1.7 13 0.4 6.6-0.2 13.2-0.7 6.5-2.4 12.9-1.7 6.4-4.3 12.4-1.1 2.4-2.3 4.7-1.2 2.3-2.5 4.5-1.3 2.2-2.8 4.3-1.5 2.1-3 4.2l-3.5 4-1.8 1.9 0.8-0.7 1.2-1 1-1.1 2.9-3.3q1.4-1.6 2.6-3.2 1.3-1.6 2.5-3.3 1.2-1.7 2.3-3.5 1.1-1.7 2.1-3.5 1.6-2.8 2.9-5.8 1.4-2.9 2.5-5.9 1.1-3 2-6.1 0.9-3.1 1.5-6.2v-0.2q0.9-4.1 1.3-8.2 0.4-4.2 0.4-8.4 0-4.1-0.4-8.3-0.4-4.1-1.3-8.2-0.4-2.4-1-4.6-0.6-2.3-1.4-4.6-0.7-2.2-1.6-4.4-0.8-2.2-1.8-4.4-1.1-2.3-2.3-4.5-1.2-2.2-2.5-4.4-1.3-2.1-2.8-4.2-1.5-2.1-3-4l-3.5-3.9-3.7-3.8-3.9-3.6-4.3-3.4q-1.1-0.9-2.2-1.6-1.2-0.8-2.3-1.6-1.2-0.8-2.4-1.5-1.2-0.7-2.4-1.4l-5-2.6-5.3-2.1q-4.4-1.7-8.9-2.9-4.6-1.2-9.3-1.8-4.7-0.7-9.4-0.8-4.7-0.1-9.4 0.3 2.6-0.1 5.2 0 2.6 0.1 5.2 0.3 2.6 0.3 5.2 0.7 2.6 0.4 5.1 0.9 1.7 0.4 3.4 0.9 1.7 0.4 3.4 1 1.7 0.5 3.3 1.1 1.7 0.6 3.3 1.3 1.4 0.5 2.7 1.1 1.4 0.7 2.7 1.3 1.3 0.7 2.6 1.4 1.3 0.7 2.6 1.4 1.8 1.1 3.5 2.3 1.8 1.2 3.5 2.5 1.6 1.3 3.2 2.7 1.5 1.2 2.9 2.5-1.5-1.3-3.1-2.5-1.6-1.3-3.3-2.5-1.7-1.2-3.4-2.2-1.8-1.1-3.6-2.1-2.8-1.6-5.7-2.9-3-1.3-6-2.3-3-1.1-6.1-1.9-3.1-0.9-6.2-1.4c-5.9-1.1-11.8-1.6-17.8-1.4-5.9 0.2-11.8 1-17.6 2.5-5.8 1.4-11.4 3.5-16.7 6.2-5.3 2.7-10.4 5.9-15 9.7l-3.9 3.4-2 1.8-1 1-0.8 0.9-1.3 1.3c-4.7 5.7-8.7 11.9-11.8 18.6-3.1 6.7-5.3 13.7-6.5 21-1.3 7.2-1.5 14.6-0.8 22 0.7 7.3 2.5 14.5 5.1 21.4 0.5 1.7 1.3 3.4 2.1 5.2 0.8 1.8 1.6 3.4 2.6 5q0.7 1.2 1.4 2.4 0.7 1.2 1.5 2.4 0.7 1.2 1.5 2.3 0.8 1.1 1.7 2.2 1.6 2.2 3.3 4.2 1.7 2.1 3.6 4 1.9 1.9 3.8 3.7 2 1.8 4.1 3.5 2 1.5 4.1 3 2 1.4 4.2 2.7 2.1 1.3 4.3 2.5 2.3 1.2 4.6 2.2 2.1 1 4.4 1.9 2.2 0.8 4.4 1.6 2.3 0.7 4.6 1.3 2.3 0.6 4.7 1.1 4.1 0.8 8.2 1.2 4.2 0.4 8.3 0.4 4.2 0 8.4-0.5 4.1-0.4 8.2-1.3h0.8l8-2.6 5.2-2.1 4.9-2.4q1.2-0.7 2.4-1.4 1.2-0.7 2.4-1.4 1.2-0.8 2.3-1.5 1.1-0.8 2.2-1.6l4.3-3.4 3.9-3.6zm-2.1-113.8l-1.2-1-3.2-2.9q-0.1-0.1-0.2-0.1 0.2 0.1 0.3 0.2l3.3 3 1.1 0.9zm-66.9 140q4 0.4 8.1 0.4 4.1 0 8.1-0.4 4.1-0.3 8.1-1.1-6 0.9-12 1-6 0-11.9-0.8-6-0.8-11.7-2.5-5.8-1.6-11.3-4.1-2.3-1-4.6-2.2-2.3-1.2-4.4-2.5-2.2-1.4-4.3-2.8-2.1-1.5-4.2-3.1-2.1-1.7-4.1-3.5-2-1.8-3.9-3.8-1.8-1.9-3.6-4-1.8-2-3.4-4.2-0.8-1.1-1.6-2.3-0.8-1.1-1.5-2.3-0.8-1.2-1.5-2.4-0.7-1.2-1.4-2.5c-1-1.6-1.8-3.4-2.6-5-0.8-1.7-1.7-3.4-2.3-5.2q-2.1-5.6-3.5-11.3-1.3-5.8-1.8-11.7-0.5-5.9-0.1-11.8 0.3-6 1.5-11.8 0.4-2.3 1-4.6 0.5-2.2 1.2-4.5 0.7-2.2 1.6-4.5 0.8-2.2 1.7-4.3l-1 2.1c-0.6 1.6-1.4 3.3-2.1 5.1-2.8 7.3-4.6 14.9-5.2 22.7-0.7 7.8-0.2 15.7 1.4 23.3 1.5 7.7 4.2 15.1 7.9 22 3.7 6.9 8.4 13.2 13.9 18.8q1 1.1 2.1 2.1 1.1 1 2.2 2 1.2 0.9 2.3 1.9 1.2 0.9 2.4 1.8 1.2 0.9 2.4 1.8 1.2 0.9 2.5 1.7 1.3 0.8 2.6 1.6 1.3 0.7 2.6 1.5 2.6 1.4 5.3 2.6 2.8 1.2 5.6 2.3 2.8 1 5.6 1.8 2.9 0.8 5.8 1.4 4 0.8 8.1 1.3zm66.7-20.7l0.9-0.9-1.1 0.9z"/>
	</g>
	<g id="SvgjsG1098">
		<path id="Layer" fill-rule="evenodd" class="s0" d="m198.5 32.7c3.5-1.3 9.3-4.4 10.8-11.1 1.6-7.9-2.1-13.3-11.7-14.9-10.6-1.9-32.2 1.8-52.6 11.4-17.5 8.3-35.8 21-39.2 35.4-3.1 14.3 4 25.6 24.6 44.7 6 5.6 11.2 10.6 15.6 15.2 22.7-9.1 66.2-21.4 71.2-22.5 5.4-1.2 6.4 1.3 0.8 2.3-4.8 1.1-46 12.9-69.3 22.9 16 16.9 21.5 27.7 19.4 41-2.5 16.7-23.1 26-44.6 24-20.6-1.9-30.1-14-28.3-25 2.7-14.6 21.5-27.9 41.9-38.5 1.2-0.8 3.1-1.5 4.7-2.3-3.9-4.2-8.9-9-14.3-14.4-22.9-21.6-30.8-32.8-27.5-48.2 3.3-15.4 16-27.1 42.5-38.8 26.6-11.8 44.7-13.1 56-11.2 12.2 2.1 16.8 10.2 14.7 20-2.1 8.7-11 13.1-13.5 13.3-2.5 0.4-3.7-2.3-1.2-3.3zm-35.2 123.4c1.6-10.4-2.1-20-18.7-38.1-1.9 0.8-3.4 1.7-4.8 2.5-25.6 13.9-38.1 24.3-40.2 35.6-1.7 9.6 7.1 18.9 24.1 20.2 20.9 1.2 37.5-8.6 39.6-20.2z"/>
	</g>
</svg>